<?xml version="1.0" standalone="no"?>
<!DOCTYPE svg PUBLIC "-//W3C//DTD SVG 20010904//EN"
 "http://www.w3.org/TR/2001/REC-SVG-20010904/DTD/svg10.dtd">
<svg version="1.0" xmlns="http://www.w3.org/2000/svg"
 width="416.000000pt" height="111.000000pt" viewBox="0 0 416.000000 111.000000"
 preserveAspectRatio="xMidYMid meet">

<g transform="translate(0.000000,111.000000) scale(0.100000,-0.100000)"
fill="#000000" stroke="none">
<path d="M640 900 l0 -210 -41 41 c-122 122 -334 124 -466 4 -142 -127 -175
-375 -76 -557 101 -185 364 -236 527 -103 l55 44 3 -52 3 -52 58 -3 57 -3 0
551 0 550 -60 0 -60 0 0 -210z m-172 -206 c58 -29 90 -65 124 -140 18 -40 23
-67 23 -145 0 -90 -2 -100 -35 -165 -43 -85 -102 -129 -183 -139 -109 -13
-197 37 -248 141 -29 59 -33 76 -33 153 0 102 13 153 58 218 68 98 188 130
294 77z"/>
<path d="M972 1003 c-24 -9 -43 -60 -32 -87 28 -74 150 -52 150 26 0 47 -68
81 -118 61z"/>
<path d="M4025 985 c-30 -30 -31 -54 -4 -89 29 -37 89 -37 118 0 12 15 21 35
21 46 0 30 -45 68 -80 68 -19 0 -40 -9 -55 -25z"/>
<path d="M2210 811 c-82 -25 -148 -79 -174 -143 -26 -62 -23 -68 39 -68 48 0
55 3 55 19 0 28 52 75 97 89 91 27 189 6 243 -52 l25 -28 5 -266 c5 -287 7
-294 61 -326 61 -36 59 -42 59 249 0 335 -9 384 -86 459 -52 51 -127 76 -222
75 -42 0 -88 -4 -102 -8z"/>
<path d="M2976 780 c-26 -10 -57 -27 -67 -36 -18 -16 -19 -16 -19 14 l0 32
-60 0 -60 0 2 -387 3 -388 57 -3 57 -3 3 289 3 289 27 40 c34 52 87 78 158 78
69 -1 114 -26 143 -80 21 -38 22 -55 25 -328 l3 -288 57 3 57 3 5 286 5 286
27 40 c35 52 87 78 160 78 61 -1 94 -17 131 -66 31 -43 37 -94 37 -367 l0
-263 58 3 57 3 3 240 c4 325 -11 407 -85 477 -101 96 -298 90 -397 -11 l-38
-39 -32 36 c-69 78 -209 105 -320 62z"/>
<path d="M952 403 l3 -388 58 -3 57 -3 0 391 0 390 -60 0 -60 0 2 -387z"/>
<path d="M1282 583 c50 -115 125 -289 169 -388 l78 -180 48 0 48 0 167 380
c92 209 167 383 168 388 0 4 -27 7 -59 7 l-59 0 -128 -300 c-71 -165 -131
-300 -134 -300 -3 0 -64 135 -135 300 l-129 300 -62 0 -63 0 91 -207z"/>
<path d="M4022 403 l3 -388 58 -3 57 -3 0 391 0 390 -60 0 -60 0 2 -387z"/>
<path d="M2325 539 c-197 -102 -303 -198 -336 -308 -16 -54 0 -123 39 -164 29
-30 106 -57 161 -56 35 0 34 1 -14 14 -60 16 -124 79 -126 122 -4 109 50 182
203 276 80 48 88 48 81 -4 -6 -40 -5 -41 23 -37 27 3 29 7 46 88 20 97 21 110
11 110 -5 0 -44 -19 -88 -41z"/>
</g>
</svg>
